<svg width="18" height="18" viewBox="0 0 18 18" fill="none" xmlns="http://www.w3.org/2000/svg">
<path d="M9.17562 7.75219H17.4051C17.4959 8.25921 17.5413 8.74352 17.5413 9.20513C17.5413 10.8472 17.197 12.3134 16.5084 13.6037C15.8198 14.8939 14.8379 15.9022 13.5628 16.6287C12.2877 17.3552 10.8253 17.7184 9.17562 17.7184C7.98754 17.7184 6.85622 17.4895 5.78165 17.0317C4.70708 16.5739 3.78008 15.9552 3.00064 15.1758C2.2212 14.3963 1.60257 13.4693 1.14475 12.3948C0.686921 11.3202 0.458008 10.1889 0.458008 9.00081C0.458008 7.81273 0.686921 6.68141 1.14475 5.60685C1.60257 4.53228 2.2212 3.60528 3.00064 2.82584C3.78008 2.0464 4.70708 1.42777 5.78165 0.969942C6.85622 0.512116 7.98754 0.283203 9.17562 0.283203C11.4458 0.283203 13.3944 1.04372 15.0214 2.56476L12.649 4.84633C11.7183 3.94581 10.5604 3.49555 9.17562 3.49555C8.19942 3.49555 7.29702 3.74149 6.46839 4.23337C5.63976 4.72525 4.98329 5.39307 4.49898 6.23683C4.01467 7.08059 3.77251 8.00192 3.77251 9.00081C3.77251 9.9997 4.01467 10.921 4.49898 11.7648C4.98329 12.6086 5.63976 13.2764 6.46839 13.7683C7.29702 14.2601 8.19942 14.5061 9.17562 14.5061C9.83398 14.5061 10.4394 14.4153 10.9918 14.2336C11.5442 14.052 11.9982 13.825 12.3539 13.5526C12.7096 13.2802 13.0198 12.9699 13.2847 12.6218C13.5496 12.2737 13.7444 11.9445 13.8693 11.6343C13.9941 11.324 14.0793 11.0289 14.1247 10.7489H9.17562V7.75219Z" fill="#787A80"/>
</svg>
